<mxfile host="app.diagrams.net" agent="Mozilla/5.0 (Windows NT 10.0; Win64; x64) AppleWebKit/537.36 (KHTML, like Gecko) Chrome/134.0.0.0 Safari/537.36 Edg/134.0.0.0" version="26.1.1">
  <diagram name="第 1 页" id="xKw_ferPTLOMs_nH6PUX">
    <mxGraphModel dx="1188" dy="658" grid="1" gridSize="10" guides="1" tooltips="1" connect="1" arrows="1" fold="1" page="1" pageScale="1" pageWidth="1600" pageHeight="900" math="0" shadow="0">
      <root>
        <mxCell id="0" />
        <mxCell id="1" parent="0" />
        <mxCell id="KQHxiMHUttc1xyP1ephu-7" style="edgeStyle=orthogonalEdgeStyle;rounded=0;orthogonalLoop=1;jettySize=auto;html=1;entryX=0;entryY=0.5;entryDx=0;entryDy=0;endArrow=none;startFill=0;" edge="1" parent="1" source="KQHxiMHUttc1xyP1ephu-3" target="KQHxiMHUttc1xyP1ephu-4">
          <mxGeometry relative="1" as="geometry" />
        </mxCell>
        <mxCell id="KQHxiMHUttc1xyP1ephu-3" value="" style="ellipse;whiteSpace=wrap;html=1;aspect=fixed;fillColor=#dae8fc;strokeColor=#6c8ebf;" vertex="1" parent="1">
          <mxGeometry x="350" y="70" width="20" height="20" as="geometry" />
        </mxCell>
        <mxCell id="KQHxiMHUttc1xyP1ephu-9" style="edgeStyle=orthogonalEdgeStyle;shape=connector;rounded=0;orthogonalLoop=1;jettySize=auto;html=1;exitX=1;exitY=0.5;exitDx=0;exitDy=0;entryX=0;entryY=0.5;entryDx=0;entryDy=0;strokeColor=default;align=center;verticalAlign=middle;fontFamily=Helvetica;fontSize=12;fontColor=default;labelBackgroundColor=default;startFill=0;endArrow=none;" edge="1" parent="1" source="KQHxiMHUttc1xyP1ephu-4" target="KQHxiMHUttc1xyP1ephu-8">
          <mxGeometry relative="1" as="geometry" />
        </mxCell>
        <mxCell id="KQHxiMHUttc1xyP1ephu-4" value="" style="ellipse;whiteSpace=wrap;html=1;aspect=fixed;fillColor=#dae8fc;strokeColor=#6c8ebf;" vertex="1" parent="1">
          <mxGeometry x="390" y="70" width="20" height="20" as="geometry" />
        </mxCell>
        <mxCell id="KQHxiMHUttc1xyP1ephu-16" style="edgeStyle=orthogonalEdgeStyle;shape=connector;rounded=0;orthogonalLoop=1;jettySize=auto;html=1;entryX=0;entryY=0.5;entryDx=0;entryDy=0;strokeColor=default;align=center;verticalAlign=middle;fontFamily=Helvetica;fontSize=12;fontColor=default;labelBackgroundColor=default;startFill=0;endArrow=none;" edge="1" parent="1" source="KQHxiMHUttc1xyP1ephu-8" target="KQHxiMHUttc1xyP1ephu-15">
          <mxGeometry relative="1" as="geometry" />
        </mxCell>
        <mxCell id="KQHxiMHUttc1xyP1ephu-8" value="" style="ellipse;whiteSpace=wrap;html=1;aspect=fixed;strokeColor=#b85450;align=center;verticalAlign=middle;fontFamily=Helvetica;fontSize=12;fillColor=#f8cecc;" vertex="1" parent="1">
          <mxGeometry x="430" y="70" width="20" height="20" as="geometry" />
        </mxCell>
        <mxCell id="KQHxiMHUttc1xyP1ephu-11" style="edgeStyle=orthogonalEdgeStyle;shape=connector;rounded=0;orthogonalLoop=1;jettySize=auto;html=1;entryX=0;entryY=0.5;entryDx=0;entryDy=0;strokeColor=default;align=center;verticalAlign=middle;fontFamily=Helvetica;fontSize=12;fontColor=default;labelBackgroundColor=default;startFill=0;endArrow=none;" edge="1" parent="1" source="KQHxiMHUttc1xyP1ephu-10" target="KQHxiMHUttc1xyP1ephu-3">
          <mxGeometry relative="1" as="geometry" />
        </mxCell>
        <mxCell id="KQHxiMHUttc1xyP1ephu-10" value="" style="ellipse;whiteSpace=wrap;html=1;aspect=fixed;fillColor=#ffe6cc;strokeColor=#d79b00;" vertex="1" parent="1">
          <mxGeometry x="310" y="70" width="20" height="20" as="geometry" />
        </mxCell>
        <mxCell id="KQHxiMHUttc1xyP1ephu-14" style="edgeStyle=orthogonalEdgeStyle;shape=connector;rounded=0;orthogonalLoop=1;jettySize=auto;html=1;entryX=0;entryY=0.5;entryDx=0;entryDy=0;strokeColor=default;align=center;verticalAlign=middle;fontFamily=Helvetica;fontSize=12;fontColor=default;labelBackgroundColor=default;startFill=0;endArrow=none;dashed=1;dashPattern=1 4;fontStyle=0;strokeWidth=3;" edge="1" parent="1" source="KQHxiMHUttc1xyP1ephu-13" target="KQHxiMHUttc1xyP1ephu-26">
          <mxGeometry relative="1" as="geometry" />
        </mxCell>
        <mxCell id="KQHxiMHUttc1xyP1ephu-59" style="shape=connector;rounded=0;orthogonalLoop=1;jettySize=auto;html=1;exitX=0.5;exitY=0;exitDx=0;exitDy=0;strokeColor=default;align=center;verticalAlign=middle;fontFamily=Helvetica;fontSize=12;fontColor=default;labelBackgroundColor=default;startFill=0;endArrow=none;" edge="1" parent="1" source="KQHxiMHUttc1xyP1ephu-13">
          <mxGeometry relative="1" as="geometry">
            <mxPoint x="219.75862068965512" y="30" as="targetPoint" />
          </mxGeometry>
        </mxCell>
        <mxCell id="KQHxiMHUttc1xyP1ephu-13" value="" style="ellipse;whiteSpace=wrap;html=1;aspect=fixed;fillColor=#dae8fc;strokeColor=#6c8ebf;" vertex="1" parent="1">
          <mxGeometry x="210" y="70" width="20" height="20" as="geometry" />
        </mxCell>
        <mxCell id="KQHxiMHUttc1xyP1ephu-15" value="" style="ellipse;whiteSpace=wrap;html=1;aspect=fixed;strokeColor=#6c8ebf;align=center;verticalAlign=middle;fontFamily=Helvetica;fontSize=12;fontColor=default;fillColor=#dae8fc;" vertex="1" parent="1">
          <mxGeometry x="470" y="70" width="20" height="20" as="geometry" />
        </mxCell>
        <mxCell id="KQHxiMHUttc1xyP1ephu-17" style="edgeStyle=orthogonalEdgeStyle;shape=connector;rounded=0;orthogonalLoop=1;jettySize=auto;html=1;entryX=0;entryY=0.5;entryDx=0;entryDy=0;strokeColor=default;align=center;verticalAlign=middle;fontFamily=Helvetica;fontSize=12;fontColor=default;labelBackgroundColor=default;startFill=0;endArrow=none;exitX=1;exitY=0.5;exitDx=0;exitDy=0;" edge="1" parent="1" source="KQHxiMHUttc1xyP1ephu-15" target="KQHxiMHUttc1xyP1ephu-18">
          <mxGeometry relative="1" as="geometry">
            <mxPoint x="460" y="90" as="sourcePoint" />
            <mxPoint x="480" y="90" as="targetPoint" />
          </mxGeometry>
        </mxCell>
        <mxCell id="KQHxiMHUttc1xyP1ephu-20" style="edgeStyle=orthogonalEdgeStyle;shape=connector;rounded=0;orthogonalLoop=1;jettySize=auto;html=1;exitX=1;exitY=0.5;exitDx=0;exitDy=0;entryX=0;entryY=0.5;entryDx=0;entryDy=0;strokeColor=default;align=center;verticalAlign=middle;fontFamily=Helvetica;fontSize=12;fontColor=default;labelBackgroundColor=default;startFill=0;endArrow=none;dashed=1;dashPattern=1 4;strokeWidth=3;" edge="1" parent="1" source="KQHxiMHUttc1xyP1ephu-18" target="KQHxiMHUttc1xyP1ephu-19">
          <mxGeometry relative="1" as="geometry" />
        </mxCell>
        <mxCell id="KQHxiMHUttc1xyP1ephu-18" value="" style="ellipse;whiteSpace=wrap;html=1;aspect=fixed;strokeColor=#6c8ebf;align=center;verticalAlign=middle;fontFamily=Helvetica;fontSize=12;fontColor=default;fillColor=#dae8fc;" vertex="1" parent="1">
          <mxGeometry x="510" y="70" width="20" height="20" as="geometry" />
        </mxCell>
        <mxCell id="KQHxiMHUttc1xyP1ephu-60" style="shape=connector;rounded=0;orthogonalLoop=1;jettySize=auto;html=1;exitX=0.5;exitY=0;exitDx=0;exitDy=0;strokeColor=default;align=center;verticalAlign=middle;fontFamily=Helvetica;fontSize=12;fontColor=default;labelBackgroundColor=default;startFill=0;endArrow=none;" edge="1" parent="1" source="KQHxiMHUttc1xyP1ephu-19">
          <mxGeometry relative="1" as="geometry">
            <mxPoint x="579.7586206896551" y="30" as="targetPoint" />
          </mxGeometry>
        </mxCell>
        <mxCell id="KQHxiMHUttc1xyP1ephu-19" value="" style="ellipse;whiteSpace=wrap;html=1;aspect=fixed;strokeColor=#6c8ebf;align=center;verticalAlign=middle;fontFamily=Helvetica;fontSize=12;fontColor=default;fillColor=#dae8fc;" vertex="1" parent="1">
          <mxGeometry x="570" y="70" width="20" height="20" as="geometry" />
        </mxCell>
        <mxCell id="KQHxiMHUttc1xyP1ephu-24" value="第一阶段" style="text;html=1;align=center;verticalAlign=middle;resizable=0;points=[];autosize=1;strokeColor=none;fillColor=none;fontFamily=Times New Roman;fontSize=25;fontColor=default;" vertex="1" parent="1">
          <mxGeometry x="80" y="60" width="120" height="40" as="geometry" />
        </mxCell>
        <mxCell id="KQHxiMHUttc1xyP1ephu-28" style="edgeStyle=orthogonalEdgeStyle;shape=connector;rounded=0;orthogonalLoop=1;jettySize=auto;html=1;exitX=1;exitY=0.5;exitDx=0;exitDy=0;entryX=0;entryY=0.5;entryDx=0;entryDy=0;strokeColor=default;align=center;verticalAlign=middle;fontFamily=Helvetica;fontSize=12;fontColor=default;labelBackgroundColor=default;startFill=0;endArrow=none;" edge="1" parent="1" source="KQHxiMHUttc1xyP1ephu-26" target="KQHxiMHUttc1xyP1ephu-10">
          <mxGeometry relative="1" as="geometry" />
        </mxCell>
        <mxCell id="KQHxiMHUttc1xyP1ephu-26" value="" style="ellipse;whiteSpace=wrap;html=1;aspect=fixed;fillColor=#dae8fc;strokeColor=#6c8ebf;" vertex="1" parent="1">
          <mxGeometry x="270" y="70" width="20" height="20" as="geometry" />
        </mxCell>
        <mxCell id="KQHxiMHUttc1xyP1ephu-30" value="第二阶段" style="text;html=1;align=center;verticalAlign=middle;resizable=0;points=[];autosize=1;strokeColor=none;fillColor=none;fontFamily=Times New Roman;fontSize=25;fontColor=default;" vertex="1" parent="1">
          <mxGeometry x="80" y="140" width="120" height="40" as="geometry" />
        </mxCell>
        <mxCell id="KQHxiMHUttc1xyP1ephu-31" style="rounded=0;orthogonalLoop=1;jettySize=auto;html=1;entryX=0;entryY=0.5;entryDx=0;entryDy=0;endArrow=none;startFill=0;" edge="1" parent="1" source="KQHxiMHUttc1xyP1ephu-32" target="KQHxiMHUttc1xyP1ephu-34">
          <mxGeometry relative="1" as="geometry" />
        </mxCell>
        <mxCell id="KQHxiMHUttc1xyP1ephu-32" value="" style="ellipse;whiteSpace=wrap;html=1;aspect=fixed;fillColor=#ffe6cc;strokeColor=#d79b00;" vertex="1" parent="1">
          <mxGeometry x="350" y="150" width="20" height="20" as="geometry" />
        </mxCell>
        <mxCell id="KQHxiMHUttc1xyP1ephu-33" style="shape=connector;rounded=0;orthogonalLoop=1;jettySize=auto;html=1;entryX=0;entryY=0.5;entryDx=0;entryDy=0;strokeColor=default;align=center;verticalAlign=middle;fontFamily=Helvetica;fontSize=12;fontColor=default;labelBackgroundColor=default;startFill=0;endArrow=none;" edge="1" parent="1" source="KQHxiMHUttc1xyP1ephu-34" target="KQHxiMHUttc1xyP1ephu-36">
          <mxGeometry relative="1" as="geometry" />
        </mxCell>
        <mxCell id="KQHxiMHUttc1xyP1ephu-34" value="" style="ellipse;whiteSpace=wrap;html=1;aspect=fixed;fillColor=#dae8fc;strokeColor=#6c8ebf;" vertex="1" parent="1">
          <mxGeometry x="390" y="150" width="20" height="20" as="geometry" />
        </mxCell>
        <mxCell id="KQHxiMHUttc1xyP1ephu-35" style="shape=connector;rounded=0;orthogonalLoop=1;jettySize=auto;html=1;entryX=0;entryY=0.5;entryDx=0;entryDy=0;strokeColor=default;align=center;verticalAlign=middle;fontFamily=Helvetica;fontSize=12;fontColor=default;labelBackgroundColor=default;startFill=0;endArrow=none;" edge="1" parent="1" source="KQHxiMHUttc1xyP1ephu-36" target="KQHxiMHUttc1xyP1ephu-41">
          <mxGeometry relative="1" as="geometry" />
        </mxCell>
        <mxCell id="KQHxiMHUttc1xyP1ephu-36" value="" style="ellipse;whiteSpace=wrap;html=1;aspect=fixed;strokeColor=#b85450;align=center;verticalAlign=middle;fontFamily=Helvetica;fontSize=12;fillColor=#f8cecc;" vertex="1" parent="1">
          <mxGeometry x="430" y="150" width="20" height="20" as="geometry" />
        </mxCell>
        <mxCell id="KQHxiMHUttc1xyP1ephu-37" style="shape=connector;rounded=0;orthogonalLoop=1;jettySize=auto;html=1;strokeColor=default;align=center;verticalAlign=middle;fontFamily=Helvetica;fontSize=12;fontColor=default;labelBackgroundColor=default;startFill=0;endArrow=none;exitX=1;exitY=0.5;exitDx=0;exitDy=0;entryX=0;entryY=0.5;entryDx=0;entryDy=0;" edge="1" parent="1" source="KQHxiMHUttc1xyP1ephu-38" target="KQHxiMHUttc1xyP1ephu-32">
          <mxGeometry relative="1" as="geometry">
            <mxPoint x="350" y="180" as="targetPoint" />
          </mxGeometry>
        </mxCell>
        <mxCell id="KQHxiMHUttc1xyP1ephu-78" style="edgeStyle=none;shape=connector;rounded=0;orthogonalLoop=1;jettySize=auto;html=1;exitX=0.5;exitY=1;exitDx=0;exitDy=0;entryX=0.5;entryY=0;entryDx=0;entryDy=0;strokeColor=default;align=center;verticalAlign=middle;fontFamily=Helvetica;fontSize=12;fontColor=default;labelBackgroundColor=default;startFill=0;endArrow=none;dashed=1;" edge="1" parent="1" source="KQHxiMHUttc1xyP1ephu-38" target="KQHxiMHUttc1xyP1ephu-64">
          <mxGeometry relative="1" as="geometry" />
        </mxCell>
        <mxCell id="KQHxiMHUttc1xyP1ephu-38" value="" style="ellipse;whiteSpace=wrap;html=1;aspect=fixed;fillColor=#dae8fc;strokeColor=#6c8ebf;" vertex="1" parent="1">
          <mxGeometry x="310" y="150" width="20" height="20" as="geometry" />
        </mxCell>
        <mxCell id="KQHxiMHUttc1xyP1ephu-79" style="edgeStyle=none;shape=connector;rounded=0;orthogonalLoop=1;jettySize=auto;html=1;exitX=0.5;exitY=1;exitDx=0;exitDy=0;entryX=0.5;entryY=0;entryDx=0;entryDy=0;strokeColor=default;align=center;verticalAlign=middle;fontFamily=Helvetica;fontSize=12;fontColor=default;labelBackgroundColor=default;startFill=0;endArrow=none;dashed=1;" edge="1" parent="1" source="KQHxiMHUttc1xyP1ephu-41" target="KQHxiMHUttc1xyP1ephu-71">
          <mxGeometry relative="1" as="geometry" />
        </mxCell>
        <mxCell id="KQHxiMHUttc1xyP1ephu-41" value="" style="ellipse;whiteSpace=wrap;html=1;aspect=fixed;strokeColor=#6c8ebf;align=center;verticalAlign=middle;fontFamily=Helvetica;fontSize=12;fillColor=#dae8fc;" vertex="1" parent="1">
          <mxGeometry x="470" y="150" width="20" height="20" as="geometry" />
        </mxCell>
        <mxCell id="KQHxiMHUttc1xyP1ephu-42" style="edgeStyle=orthogonalEdgeStyle;shape=connector;rounded=0;orthogonalLoop=1;jettySize=auto;html=1;entryX=0;entryY=0.5;entryDx=0;entryDy=0;strokeColor=default;align=center;verticalAlign=middle;fontFamily=Helvetica;fontSize=12;fontColor=default;labelBackgroundColor=default;startFill=0;endArrow=none;exitX=1;exitY=0.5;exitDx=0;exitDy=0;dashed=1;dashPattern=1 4;strokeWidth=3;" edge="1" parent="1" source="KQHxiMHUttc1xyP1ephu-41" target="KQHxiMHUttc1xyP1ephu-44">
          <mxGeometry relative="1" as="geometry">
            <mxPoint x="460" y="170" as="sourcePoint" />
            <mxPoint x="480" y="170" as="targetPoint" />
          </mxGeometry>
        </mxCell>
        <mxCell id="KQHxiMHUttc1xyP1ephu-44" value="" style="ellipse;whiteSpace=wrap;html=1;aspect=fixed;strokeColor=#6c8ebf;align=center;verticalAlign=middle;fontFamily=Helvetica;fontSize=12;fillColor=#dae8fc;" vertex="1" parent="1">
          <mxGeometry x="530" y="150" width="20" height="20" as="geometry" />
        </mxCell>
        <mxCell id="KQHxiMHUttc1xyP1ephu-46" style="edgeStyle=orthogonalEdgeStyle;shape=connector;rounded=0;orthogonalLoop=1;jettySize=auto;html=1;exitX=1;exitY=0.5;exitDx=0;exitDy=0;entryX=0;entryY=0.5;entryDx=0;entryDy=0;strokeColor=default;align=center;verticalAlign=middle;fontFamily=Helvetica;fontSize=12;fontColor=default;labelBackgroundColor=default;startFill=0;endArrow=none;dashed=1;dashPattern=1 4;strokeWidth=3;" edge="1" parent="1" source="KQHxiMHUttc1xyP1ephu-48" target="KQHxiMHUttc1xyP1ephu-38">
          <mxGeometry relative="1" as="geometry">
            <mxPoint x="290" y="160" as="sourcePoint" />
          </mxGeometry>
        </mxCell>
        <mxCell id="KQHxiMHUttc1xyP1ephu-48" value="" style="ellipse;whiteSpace=wrap;html=1;aspect=fixed;fillColor=#dae8fc;strokeColor=#6c8ebf;" vertex="1" parent="1">
          <mxGeometry x="250" y="150" width="20" height="20" as="geometry" />
        </mxCell>
        <mxCell id="KQHxiMHUttc1xyP1ephu-53" value="" style="endArrow=none;dashed=1;html=1;strokeWidth=1;rounded=0;strokeColor=default;align=center;verticalAlign=middle;fontFamily=Helvetica;fontSize=12;fontColor=default;labelBackgroundColor=default;entryX=0.5;entryY=1;entryDx=0;entryDy=0;exitX=0.5;exitY=0;exitDx=0;exitDy=0;" edge="1" parent="1" source="KQHxiMHUttc1xyP1ephu-48" target="KQHxiMHUttc1xyP1ephu-26">
          <mxGeometry width="50" height="50" relative="1" as="geometry">
            <mxPoint x="230" y="180" as="sourcePoint" />
            <mxPoint x="260" y="100" as="targetPoint" />
          </mxGeometry>
        </mxCell>
        <mxCell id="KQHxiMHUttc1xyP1ephu-54" value="" style="endArrow=none;dashed=1;html=1;strokeWidth=1;rounded=0;strokeColor=default;align=center;verticalAlign=middle;fontFamily=Helvetica;fontSize=12;fontColor=default;labelBackgroundColor=default;entryX=0.5;entryY=1;entryDx=0;entryDy=0;exitX=0.5;exitY=0;exitDx=0;exitDy=0;" edge="1" parent="1" source="KQHxiMHUttc1xyP1ephu-44" target="KQHxiMHUttc1xyP1ephu-15">
          <mxGeometry width="50" height="50" relative="1" as="geometry">
            <mxPoint x="490" y="216" as="sourcePoint" />
            <mxPoint x="510" y="90" as="targetPoint" />
          </mxGeometry>
        </mxCell>
        <mxCell id="KQHxiMHUttc1xyP1ephu-55" value="" style="endArrow=classic;startArrow=classic;html=1;rounded=0;strokeColor=default;align=center;verticalAlign=middle;fontFamily=Helvetica;fontSize=12;fontColor=default;labelBackgroundColor=default;" edge="1" parent="1">
          <mxGeometry width="50" height="50" relative="1" as="geometry">
            <mxPoint x="260" y="140" as="sourcePoint" />
            <mxPoint x="540" y="140" as="targetPoint" />
          </mxGeometry>
        </mxCell>
        <mxCell id="KQHxiMHUttc1xyP1ephu-56" value="第二阶段球面扫描范围" style="edgeLabel;html=1;align=center;verticalAlign=middle;resizable=0;points=[];strokeColor=#6c8ebf;fontFamily=Times New Roman;fontSize=15;fontColor=default;fillColor=#dae8fc;labelBackgroundColor=none;" vertex="1" connectable="0" parent="KQHxiMHUttc1xyP1ephu-55">
          <mxGeometry x="0.0869" y="3" relative="1" as="geometry">
            <mxPoint x="-12" y="-7" as="offset" />
          </mxGeometry>
        </mxCell>
        <mxCell id="KQHxiMHUttc1xyP1ephu-57" value="" style="endArrow=none;html=1;rounded=0;strokeColor=default;align=center;verticalAlign=middle;fontFamily=Helvetica;fontSize=12;fontColor=default;labelBackgroundColor=default;exitX=0.5;exitY=0;exitDx=0;exitDy=0;" edge="1" parent="1" source="KQHxiMHUttc1xyP1ephu-48">
          <mxGeometry width="50" height="50" relative="1" as="geometry">
            <mxPoint x="190" y="150" as="sourcePoint" />
            <mxPoint x="260" y="100" as="targetPoint" />
          </mxGeometry>
        </mxCell>
        <mxCell id="KQHxiMHUttc1xyP1ephu-58" value="" style="endArrow=none;html=1;rounded=0;strokeColor=default;align=center;verticalAlign=middle;fontFamily=Helvetica;fontSize=12;fontColor=default;labelBackgroundColor=default;exitX=0.5;exitY=0;exitDx=0;exitDy=0;" edge="1" parent="1" source="KQHxiMHUttc1xyP1ephu-44">
          <mxGeometry width="50" height="50" relative="1" as="geometry">
            <mxPoint x="540" y="150" as="sourcePoint" />
            <mxPoint x="540" y="100" as="targetPoint" />
          </mxGeometry>
        </mxCell>
        <mxCell id="KQHxiMHUttc1xyP1ephu-61" value="" style="endArrow=classic;startArrow=classic;html=1;rounded=0;strokeColor=default;align=center;verticalAlign=middle;fontFamily=Helvetica;fontSize=12;fontColor=default;labelBackgroundColor=default;" edge="1" parent="1">
          <mxGeometry width="50" height="50" relative="1" as="geometry">
            <mxPoint x="220" y="60" as="sourcePoint" />
            <mxPoint x="580" y="60" as="targetPoint" />
          </mxGeometry>
        </mxCell>
        <mxCell id="KQHxiMHUttc1xyP1ephu-62" value="初始球面扫描范围" style="edgeLabel;html=1;align=center;verticalAlign=middle;resizable=0;points=[];strokeColor=#6c8ebf;fontFamily=Times New Roman;fontSize=15;fontColor=default;fillColor=#dae8fc;labelBackgroundColor=none;" vertex="1" connectable="0" parent="KQHxiMHUttc1xyP1ephu-61">
          <mxGeometry x="0.0869" y="3" relative="1" as="geometry">
            <mxPoint x="-12" y="-7" as="offset" />
          </mxGeometry>
        </mxCell>
        <mxCell id="KQHxiMHUttc1xyP1ephu-67" style="edgeStyle=none;shape=connector;rounded=0;orthogonalLoop=1;jettySize=auto;html=1;exitX=1;exitY=0.5;exitDx=0;exitDy=0;entryX=0;entryY=0.5;entryDx=0;entryDy=0;strokeColor=default;align=center;verticalAlign=middle;fontFamily=Helvetica;fontSize=12;fontColor=default;labelBackgroundColor=default;startFill=0;endArrow=none;" edge="1" parent="1" source="KQHxiMHUttc1xyP1ephu-63" target="KQHxiMHUttc1xyP1ephu-66">
          <mxGeometry relative="1" as="geometry" />
        </mxCell>
        <mxCell id="KQHxiMHUttc1xyP1ephu-63" value="" style="ellipse;whiteSpace=wrap;html=1;aspect=fixed;fillColor=#dae8fc;strokeColor=#6c8ebf;" vertex="1" parent="1">
          <mxGeometry x="350" y="220" width="20" height="20" as="geometry" />
        </mxCell>
        <mxCell id="KQHxiMHUttc1xyP1ephu-65" style="shape=connector;rounded=0;orthogonalLoop=1;jettySize=auto;html=1;entryX=0;entryY=0.5;entryDx=0;entryDy=0;strokeColor=default;align=center;verticalAlign=middle;fontFamily=Helvetica;fontSize=12;fontColor=default;labelBackgroundColor=default;startFill=0;endArrow=none;strokeWidth=3;dashed=1;dashPattern=1 4;" edge="1" parent="1" source="KQHxiMHUttc1xyP1ephu-64" target="KQHxiMHUttc1xyP1ephu-63">
          <mxGeometry relative="1" as="geometry" />
        </mxCell>
        <mxCell id="KQHxiMHUttc1xyP1ephu-74" style="edgeStyle=none;shape=connector;rounded=0;orthogonalLoop=1;jettySize=auto;html=1;exitX=0.5;exitY=0;exitDx=0;exitDy=0;strokeColor=default;align=center;verticalAlign=middle;fontFamily=Helvetica;fontSize=12;fontColor=default;labelBackgroundColor=default;startFill=0;endArrow=none;" edge="1" parent="1" source="KQHxiMHUttc1xyP1ephu-64">
          <mxGeometry relative="1" as="geometry">
            <mxPoint x="300" y="180" as="targetPoint" />
          </mxGeometry>
        </mxCell>
        <mxCell id="KQHxiMHUttc1xyP1ephu-64" value="" style="ellipse;whiteSpace=wrap;html=1;aspect=fixed;fillColor=#dae8fc;strokeColor=#6c8ebf;" vertex="1" parent="1">
          <mxGeometry x="290" y="220" width="20" height="20" as="geometry" />
        </mxCell>
        <mxCell id="KQHxiMHUttc1xyP1ephu-69" style="edgeStyle=none;shape=connector;rounded=0;orthogonalLoop=1;jettySize=auto;html=1;exitX=1;exitY=0.5;exitDx=0;exitDy=0;entryX=0;entryY=0.5;entryDx=0;entryDy=0;strokeColor=default;align=center;verticalAlign=middle;fontFamily=Helvetica;fontSize=12;fontColor=default;labelBackgroundColor=default;startFill=0;endArrow=none;" edge="1" parent="1" source="KQHxiMHUttc1xyP1ephu-66" target="KQHxiMHUttc1xyP1ephu-68">
          <mxGeometry relative="1" as="geometry" />
        </mxCell>
        <mxCell id="KQHxiMHUttc1xyP1ephu-66" value="" style="ellipse;whiteSpace=wrap;html=1;aspect=fixed;fillColor=#ffe6cc;strokeColor=#d79b00;" vertex="1" parent="1">
          <mxGeometry x="390" y="220" width="20" height="20" as="geometry" />
        </mxCell>
        <mxCell id="KQHxiMHUttc1xyP1ephu-72" style="edgeStyle=none;shape=connector;rounded=0;orthogonalLoop=1;jettySize=auto;html=1;exitX=1;exitY=0.5;exitDx=0;exitDy=0;entryX=0;entryY=0.5;entryDx=0;entryDy=0;strokeColor=default;align=center;verticalAlign=middle;fontFamily=Helvetica;fontSize=12;fontColor=default;labelBackgroundColor=default;startFill=0;endArrow=none;strokeWidth=3;dashed=1;dashPattern=1 4;" edge="1" parent="1" source="KQHxiMHUttc1xyP1ephu-68" target="KQHxiMHUttc1xyP1ephu-71">
          <mxGeometry relative="1" as="geometry" />
        </mxCell>
        <mxCell id="KQHxiMHUttc1xyP1ephu-68" value="" style="ellipse;whiteSpace=wrap;html=1;aspect=fixed;strokeColor=#b85450;align=center;verticalAlign=middle;fontFamily=Helvetica;fontSize=12;fillColor=#f8cecc;" vertex="1" parent="1">
          <mxGeometry x="430" y="220" width="20" height="20" as="geometry" />
        </mxCell>
        <mxCell id="KQHxiMHUttc1xyP1ephu-75" style="edgeStyle=none;shape=connector;rounded=0;orthogonalLoop=1;jettySize=auto;html=1;exitX=0.5;exitY=0;exitDx=0;exitDy=0;strokeColor=default;align=center;verticalAlign=middle;fontFamily=Helvetica;fontSize=12;fontColor=default;labelBackgroundColor=default;startFill=0;endArrow=none;" edge="1" parent="1" source="KQHxiMHUttc1xyP1ephu-71">
          <mxGeometry relative="1" as="geometry">
            <mxPoint x="500" y="180" as="targetPoint" />
          </mxGeometry>
        </mxCell>
        <mxCell id="KQHxiMHUttc1xyP1ephu-71" value="" style="ellipse;whiteSpace=wrap;html=1;aspect=fixed;fillColor=#dae8fc;strokeColor=#6c8ebf;" vertex="1" parent="1">
          <mxGeometry x="490" y="220" width="20" height="20" as="geometry" />
        </mxCell>
        <mxCell id="KQHxiMHUttc1xyP1ephu-76" value="" style="endArrow=classic;startArrow=classic;html=1;rounded=0;strokeColor=default;align=center;verticalAlign=middle;fontFamily=Helvetica;fontSize=12;fontColor=default;labelBackgroundColor=default;" edge="1" parent="1">
          <mxGeometry width="50" height="50" relative="1" as="geometry">
            <mxPoint x="310" y="210" as="sourcePoint" />
            <mxPoint x="490" y="210" as="targetPoint" />
          </mxGeometry>
        </mxCell>
        <mxCell id="KQHxiMHUttc1xyP1ephu-77" value="第三阶段球面扫描范围" style="edgeLabel;html=1;align=center;verticalAlign=middle;resizable=0;points=[];strokeColor=#6c8ebf;fontFamily=Times New Roman;fontSize=15;fontColor=default;fillColor=#dae8fc;labelBackgroundColor=none;" vertex="1" connectable="0" parent="KQHxiMHUttc1xyP1ephu-76">
          <mxGeometry x="0.0869" y="3" relative="1" as="geometry">
            <mxPoint x="-12" y="-7" as="offset" />
          </mxGeometry>
        </mxCell>
        <mxCell id="KQHxiMHUttc1xyP1ephu-80" value="第三阶段" style="text;html=1;align=center;verticalAlign=middle;resizable=0;points=[];autosize=1;strokeColor=none;fillColor=none;fontFamily=Times New Roman;fontSize=25;fontColor=default;" vertex="1" parent="1">
          <mxGeometry x="80" y="210" width="120" height="40" as="geometry" />
        </mxCell>
        <mxCell id="KQHxiMHUttc1xyP1ephu-81" value="" style="ellipse;whiteSpace=wrap;html=1;aspect=fixed;strokeColor=#6c8ebf;align=center;verticalAlign=middle;fontFamily=Helvetica;fontSize=12;fontColor=default;fillColor=#dae8fc;" vertex="1" parent="1">
          <mxGeometry x="630" y="70" width="20" height="20" as="geometry" />
        </mxCell>
        <mxCell id="KQHxiMHUttc1xyP1ephu-82" value="当前阶段候选假想球面索引" style="text;html=1;align=center;verticalAlign=middle;resizable=0;points=[];autosize=1;strokeColor=none;fillColor=none;fontFamily=Helvetica;fontSize=15;fontColor=default;labelBackgroundColor=default;" vertex="1" parent="1">
          <mxGeometry x="650" y="65" width="200" height="30" as="geometry" />
        </mxCell>
        <mxCell id="KQHxiMHUttc1xyP1ephu-83" value="" style="ellipse;whiteSpace=wrap;html=1;aspect=fixed;strokeColor=#d79b00;align=center;verticalAlign=middle;fontFamily=Helvetica;fontSize=12;fillColor=#ffe6cc;" vertex="1" parent="1">
          <mxGeometry x="630" y="110" width="20" height="20" as="geometry" />
        </mxCell>
        <mxCell id="KQHxiMHUttc1xyP1ephu-84" value="当前阶段预测的球面索引" style="text;html=1;align=center;verticalAlign=middle;resizable=0;points=[];autosize=1;strokeColor=none;fillColor=none;fontFamily=Helvetica;fontSize=15;fontColor=default;labelBackgroundColor=default;" vertex="1" parent="1">
          <mxGeometry x="650" y="105" width="190" height="30" as="geometry" />
        </mxCell>
        <mxCell id="KQHxiMHUttc1xyP1ephu-85" value="" style="ellipse;whiteSpace=wrap;html=1;aspect=fixed;strokeColor=#b85450;align=center;verticalAlign=middle;fontFamily=Helvetica;fontSize=12;fillColor=#f8cecc;" vertex="1" parent="1">
          <mxGeometry x="630" y="150" width="20" height="20" as="geometry" />
        </mxCell>
        <mxCell id="KQHxiMHUttc1xyP1ephu-86" value="球面索引真值" style="text;html=1;align=center;verticalAlign=middle;resizable=0;points=[];autosize=1;strokeColor=none;fillColor=none;fontFamily=Helvetica;fontSize=15;fontColor=default;labelBackgroundColor=default;" vertex="1" parent="1">
          <mxGeometry x="650" y="145" width="110" height="30" as="geometry" />
        </mxCell>
      </root>
    </mxGraphModel>
  </diagram>
</mxfile>
